<?xml version="1.0" encoding="utf-8"?>
<!-- Generator: Adobe Illustrator 16.0.0, SVG Export Plug-In . SVG Version: 6.00 Build 0)  -->
<!DOCTYPE svg PUBLIC "-//W3C//DTD SVG 1.1//EN" "http://www.w3.org/Graphics/SVG/1.1/DTD/svg11.dtd">
<svg version="1.1" id="Layer_1" xmlns="http://www.w3.org/2000/svg" xmlns:xlink="http://www.w3.org/1999/xlink" x="0px" y="0px"
	 width="272px" height="80px" viewBox="0 0 272 80" enable-background="new 0 0 272 80" xml:space="preserve">
<g>
	<g>
		<path fill="#86888A" d="M124.078,52.861h-4.444c-0.398,0-0.547-0.368-0.727-0.726l-5.244-8.828h-0.805
			c-0.95,0-3.893-0.103-4.729-0.149v8.977c0,0.397-0.295,0.726-0.696,0.726h-3.639c-0.398,0-0.727-0.329-0.727-0.726V28.278
			c0-0.73,0.432-0.984,1.164-1.092c1.896-0.291,5.965-0.471,8.626-0.471c5.605,0,10.782,2.004,10.782,8.227v0.329
			c0,3.854-1.928,5.964-4.912,7.123l5.71,9.743c0.076,0.109,0.076,0.212,0.076,0.294C124.515,52.675,124.368,52.861,124.078,52.861z
			 M118.617,34.941c0-2.73-2.118-3.894-5.759-3.894c-0.767,0-4.079,0.072-4.729,0.144v7.895c0.576,0.036,4.103,0.11,4.729,0.11
			c3.745,0,5.759-0.724,5.759-3.926V34.941z M134.22,45.69c0,3.052,0.118,3.133,2.87,3.133h9.215c0.401,0,0.729,0.328,0.729,0.728
			v2.324c0,0.515-0.183,0.697-0.729,0.767c-1.164,0.183-3.536,0.507-7.864,0.507c-6.042,0-9.249,0.042-9.249-7.459V34.172
			c0-7.5,3.207-7.458,9.249-7.458c4.328,0,6.7,0.329,7.864,0.508c0.546,0.071,0.729,0.256,0.729,0.766v2.326
			c0,0.398-0.329,0.732-0.729,0.732h-9.215c-2.752,0-2.87,0.081-2.87,3.125v3.34h11.65c0.4,0,0.729,0.33,0.729,0.724v2.628
			c0,0.396-0.329,0.726-0.729,0.726h-11.65V45.69z M163.378,53.149c-5.855,0-10.902-2.546-10.902-10.304V27.697
			c0-0.404,0.333-0.693,0.732-0.693h3.598c0.404,0,0.729,0.29,0.729,0.693v15.148c0,4.151,1.919,6.121,5.843,6.121
			c3.935,0,5.851-1.97,5.851-6.121V27.697c0-0.404,0.326-0.693,0.726-0.693h3.603c0.403,0,0.732,0.29,0.732,0.693v15.148
			C174.29,50.603,169.242,53.149,163.378,53.149z M198.225,31.224h-7.262v20.911c0,0.397-0.335,0.726-0.736,0.726h-3.602
			c-0.4,0-0.729-0.329-0.729-0.726V31.224h-7.267c-0.396,0-0.725-0.25-0.725-0.651v-2.875c0-0.404,0.328-0.693,0.725-0.693h19.596
			c0.394,0,0.722,0.29,0.722,0.693v2.875C198.947,30.974,198.619,31.224,198.225,31.224z M247.659,52.861h-4.444
			c-0.4,0-0.543-0.368-0.724-0.726l-5.246-8.828h-0.812c-0.941,0-3.886-0.103-4.728-0.149v8.977c0,0.397-0.289,0.726-0.686,0.726
			h-3.637c-0.402,0-0.73-0.329-0.73-0.726V28.278c0-0.73,0.432-0.984,1.161-1.092c1.892-0.291,5.968-0.471,8.619-0.471
			c5.61,0,10.785,2.004,10.785,8.227v0.329c0,3.854-1.932,5.964-4.916,7.123l5.722,9.743c0.073,0.109,0.073,0.212,0.073,0.294
			C248.096,52.675,247.947,52.861,247.659,52.861z M242.197,34.941c0-2.73-2.118-3.894-5.765-3.894
			c-0.759,0-4.071,0.072-4.728,0.144v7.895c0.588,0.036,4.119,0.11,4.728,0.11c3.757,0,5.765-0.724,5.765-3.926V34.941z
			 M261.551,53.167c-3.217,0-6.477-0.552-8.228-0.954c-0.359-0.073-0.69-0.326-0.69-0.726v-2.622c0-0.398,0.331-0.692,0.69-0.692
			c0.038,0,0.038,0,0.072,0c1.46,0.183,4.867,0.657,8.232,0.657c3.236,0,4.227-1.16,4.227-3.268c0-2.731-6.517-4.243-9.698-5.553
			c-3.167-1.31-4.289-3.818-4.289-6.363c0-4.007,3.224-6.919,9.993-6.919c3.471,0,6.647,0.66,7.885,0.957
			c0.366,0.074,0.652,0.328,0.652,0.69v2.693c0,0.36-0.249,0.654-0.619,0.654c-0.033,0-0.033,0-0.069,0
			c-2.406-0.216-4.896-0.659-8.062-0.659c-2.697,0-4.715,0.945-4.715,2.584c0,1.198,1.367,2.298,2.983,2.94
			c1.616,0.637,3.735,1.462,6.157,2.435c3.066,1.241,5.055,3.047,5.055,6.542C271.127,49.233,268.835,53.167,261.551,53.167z
			 M207.718,45.69c0,3.052,0.113,3.133,2.873,3.133h9.221c0.392,0,0.721,0.328,0.721,0.728v2.324c0,0.515-0.183,0.697-0.721,0.767
			c-1.172,0.183-3.539,0.507-7.869,0.507c-6.053,0-9.251,0.042-9.251-7.459V34.172c0-7.5,3.199-7.458,9.251-7.458
			c4.33,0,6.697,0.329,7.869,0.508c0.538,0.071,0.721,0.256,0.721,0.766v2.326c0,0.398-0.33,0.732-0.721,0.732h-9.221
			c-2.759,0-2.873,0.081-2.873,3.125v3.34h11.651c0.405,0,0.722,0.33,0.722,0.724v2.628c0,0.396-0.317,0.726-0.722,0.726h-11.651
			V45.69z"/>
		<g>
			
				<linearGradient id="SVGID_1_" gradientUnits="userSpaceOnUse" x1="-31.7983" y1="53.6333" x2="-54.0006" y2="66.4518" gradientTransform="matrix(0.9996 0.0286 -0.0286 0.9996 87.0042 -18.8536)">
				<stop  offset="0" style="stop-color:#F99D1C"/>
				<stop  offset="0.078" style="stop-color:#F78E1E"/>
				<stop  offset="0.1999" style="stop-color:#F57D20"/>
				<stop  offset="0.3335" style="stop-color:#F37321"/>
				<stop  offset="0.5" style="stop-color:#F37021"/>
				<stop  offset="0.6665" style="stop-color:#F37321"/>
				<stop  offset="0.8001" style="stop-color:#F57D20"/>
				<stop  offset="0.922" style="stop-color:#F78E1E"/>
				<stop  offset="1" style="stop-color:#F99D1C"/>
			</linearGradient>
			<path fill="url(#SVGID_1_)" d="M38.121,28.586c0.419,0.782,0.135,1.764-0.652,2.19c-0.795,0.427-1.772,0.123-2.199-0.663
				c-0.432-0.781-0.134-1.766,0.65-2.189C36.711,27.498,37.7,27.792,38.121,28.586z M30.117,41.257
				c-0.458,0.253-0.631,0.836-0.381,1.296c0.253,0.47,0.834,0.633,1.289,0.375c0.462-0.237,0.65-0.828,0.389-1.287
				C31.156,41.183,30.589,41.008,30.117,41.257z M29.955,37.362c-0.533,0.287-0.731,0.962-0.445,1.497
				c0.299,0.547,0.969,0.745,1.511,0.456c0.535-0.293,0.74-0.978,0.45-1.509C31.176,37.263,30.505,37.062,29.955,37.362z
				 M30.966,33.613c-0.618,0.334-0.846,1.107-0.523,1.722c0.34,0.611,1.11,0.849,1.724,0.512c0.62-0.328,0.855-1.104,0.521-1.723
				C32.345,33.511,31.581,33.283,30.966,33.613z M33.028,30.37c-0.704,0.385-0.964,1.237-0.583,1.947
				c0.376,0.688,1.232,0.948,1.927,0.574c0.707-0.375,0.964-1.248,0.59-1.934C34.592,30.263,33.718,29.989,33.028,30.37z
				 M31.449,44.948c-0.39,0.203-0.529,0.686-0.32,1.084c0.208,0.379,0.684,0.525,1.081,0.322c0.381-0.219,0.527-0.699,0.315-1.085
				C32.313,44.889,31.83,44.738,31.449,44.948z M49.866,31.681c0.249,0.461,0.825,0.63,1.301,0.394
				c0.459-0.263,0.639-0.838,0.387-1.303c-0.257-0.461-0.831-0.64-1.291-0.385C49.789,30.646,49.62,31.221,49.866,31.681z
				 M46.631,29.621c0.292,0.541,0.98,0.739,1.502,0.444c0.553-0.293,0.75-0.965,0.455-1.503c-0.285-0.541-0.968-0.741-1.498-0.458
				C46.547,28.405,46.34,29.086,46.631,29.621z M42.892,28.619c0.326,0.615,1.095,0.847,1.71,0.509
				c0.628-0.336,0.85-1.101,0.522-1.72c-0.326-0.614-1.1-0.85-1.718-0.506C42.784,27.231,42.564,27.999,42.892,28.619z
				 M38.989,28.774c0.37,0.705,1.247,0.955,1.941,0.587c0.691-0.38,0.945-1.245,0.575-1.943c-0.367-0.691-1.246-0.955-1.94-0.575
				C38.87,27.215,38.624,28.086,38.989,28.774z M52.297,34.598c0.205,0.386,0.689,0.526,1.065,0.319
				c0.39-0.208,0.534-0.682,0.324-1.068c-0.21-0.393-0.684-0.537-1.08-0.339C52.237,33.726,52.082,34.22,52.297,34.598z
				 M49.55,49.754c-0.427-0.792-1.409-1.101-2.204-0.661c-0.784,0.419-1.086,1.403-0.65,2.191c0.428,0.785,1.412,1.072,2.201,0.659
				C49.679,51.509,49.971,50.521,49.55,49.754z M34.944,48.182c-0.245-0.456-0.825-0.624-1.288-0.382
				c-0.463,0.243-0.635,0.829-0.387,1.287c0.244,0.467,0.823,0.638,1.288,0.379C35.017,49.227,35.192,48.648,34.944,48.182z
				 M38.184,50.241c-0.299-0.533-0.971-0.742-1.502-0.444c-0.552,0.3-0.747,0.966-0.449,1.504c0.28,0.542,0.959,0.748,1.499,0.457
				C38.272,51.455,38.474,50.775,38.184,50.241z M41.931,51.246c-0.326-0.617-1.106-0.836-1.73-0.516
				c-0.619,0.333-0.837,1.11-0.512,1.722c0.339,0.622,1.109,0.852,1.725,0.519C42.04,52.646,42.267,51.868,41.931,51.246z
				 M45.829,51.087c-0.377-0.693-1.239-0.951-1.94-0.58c-0.699,0.37-0.941,1.235-0.562,1.938c0.363,0.688,1.227,0.962,1.925,0.573
				C45.952,52.651,46.2,51.778,45.829,51.087z M54.685,38.619c0.468-0.27,0.647-0.851,0.403-1.307
				c-0.254-0.465-0.836-0.633-1.29-0.384c-0.47,0.246-0.646,0.833-0.39,1.296C53.649,38.685,54.238,38.856,54.685,38.619z
				 M54.864,42.508c0.541-0.294,0.734-0.97,0.44-1.506c-0.287-0.543-0.957-0.739-1.5-0.45c-0.543,0.298-0.735,0.964-0.457,1.514
				C53.635,42.596,54.331,42.793,54.864,42.508z M53.846,46.254c0.631-0.34,0.851-1.104,0.529-1.726
				c-0.335-0.614-1.102-0.851-1.725-0.516c-0.621,0.327-0.847,1.116-0.519,1.731C52.472,46.354,53.24,46.585,53.846,46.254z
				 M51.798,49.483c0.694-0.36,0.95-1.242,0.574-1.93c-0.382-0.692-1.244-0.96-1.934-0.579c-0.699,0.377-0.951,1.247-0.578,1.938
				C50.229,49.607,51.098,49.865,51.798,49.483z"/>
			
				<linearGradient id="SVGID_2_" gradientUnits="userSpaceOnUse" x1="-150.4897" y1="128.0156" x2="-185.0122" y2="128.0156" gradientTransform="matrix(0.9595 0.2818 -0.2818 0.9595 239.4367 -35.6176)">
				<stop  offset="0" style="stop-color:#F99D1C"/>
				<stop  offset="0.078" style="stop-color:#F78E1E"/>
				<stop  offset="0.1999" style="stop-color:#F57D20"/>
				<stop  offset="0.3335" style="stop-color:#F37321"/>
				<stop  offset="0.5" style="stop-color:#F37021"/>
				<stop  offset="0.6665" style="stop-color:#F37321"/>
				<stop  offset="0.8001" style="stop-color:#F57D20"/>
				<stop  offset="0.922" style="stop-color:#F78E1E"/>
				<stop  offset="1" style="stop-color:#F99D1C"/>
			</linearGradient>
			<path fill="url(#SVGID_2_)" d="M49.054,24.715c-0.322,1.099-1.479,1.729-2.584,1.401c-1.121-0.33-1.734-1.479-1.412-2.589
				c0.319-1.104,1.475-1.739,2.587-1.417C48.755,22.437,49.391,23.6,49.054,24.715z M29.077,29.636
				c-0.546-0.147-1.119,0.155-1.279,0.702c-0.162,0.541,0.156,1.114,0.698,1.27c0.544,0.161,1.111-0.148,1.275-0.692
				C29.94,30.375,29.617,29.804,29.077,29.636z M32.692,25.66c-0.68-0.199-1.378,0.193-1.574,0.863
				c-0.198,0.677,0.182,1.378,0.859,1.579c0.671,0.196,1.38-0.194,1.578-0.863C33.751,26.567,33.364,25.863,32.692,25.66z
				 M37.322,22.857c-0.86-0.246-1.751,0.244-2.008,1.091c-0.25,0.856,0.245,1.751,1.1,2.004c0.853,0.251,1.754-0.232,2.003-1.093
				C38.658,24.01,38.167,23.11,37.322,22.857z M42.453,21.711c-0.974-0.29-1.969,0.267-2.257,1.229
				c-0.285,0.961,0.262,1.964,1.227,2.253c0.963,0.284,1.966-0.273,2.253-1.226C43.964,23.005,43.413,21.991,42.453,21.711z
				 M26.791,34.557c-0.406-0.119-0.832,0.114-0.947,0.518c-0.12,0.412,0.106,0.843,0.515,0.963c0.411,0.119,0.836-0.12,0.956-0.527
				C27.433,35.104,27.204,34.679,26.791,34.557z M57.915,39.184c-0.164,0.54,0.146,1.12,0.698,1.275
				c0.546,0.165,1.114-0.151,1.276-0.698c0.158-0.538-0.147-1.112-0.697-1.275C58.648,38.33,58.065,38.641,57.915,39.184z
				 M56.724,34.04c-0.208,0.684,0.192,1.388,0.862,1.582c0.678,0.2,1.379-0.186,1.577-0.861c0.198-0.674-0.183-1.378-0.857-1.572
				C57.632,32.986,56.917,33.373,56.724,34.04z M53.923,29.413c-0.255,0.866,0.239,1.755,1.09,2.006
				c0.858,0.252,1.749-0.245,2.004-1.098c0.256-0.849-0.233-1.746-1.094-1.995C55.075,28.074,54.183,28.564,53.923,29.413z
				 M49.98,25.818c-0.286,0.958,0.27,1.967,1.231,2.252c0.964,0.283,1.97-0.278,2.252-1.237c0.287-0.958-0.262-1.967-1.225-2.252
				C51.27,24.297,50.266,24.859,49.98,25.818z M57.497,44.378c-0.113,0.405,0.115,0.837,0.517,0.952
				c0.414,0.122,0.835-0.11,0.953-0.522c0.124-0.405-0.108-0.834-0.519-0.954C58.048,43.737,57.617,43.97,57.497,44.378z
				 M39.759,56.362c0.324-1.11-0.301-2.271-1.416-2.598c-1.109-0.321-2.269,0.31-2.587,1.414c-0.319,1.117,0.301,2.268,1.416,2.596
				C38.277,58.093,39.444,57.457,39.759,56.362z M26.899,40.7c0.162-0.542-0.148-1.113-0.695-1.28
				c-0.544-0.16-1.113,0.16-1.282,0.701c-0.166,0.542,0.158,1.109,0.7,1.272C26.165,41.554,26.734,41.249,26.899,40.7z
				 M28.089,45.84c0.199-0.673-0.189-1.379-0.857-1.564c-0.683-0.206-1.388,0.177-1.575,0.853c-0.189,0.671,0.174,1.381,0.858,1.579
				C27.183,46.91,27.892,46.517,28.089,45.84z M30.894,50.475c0.25-0.855-0.245-1.758-1.101-2.013c-0.856-0.251-1.742,0.244-2,1.101
				c-0.253,0.853,0.231,1.746,1.091,2.001C29.749,51.82,30.637,51.329,30.894,50.475z M34.837,54.074
				c0.277-0.956-0.271-1.974-1.238-2.254c-0.965-0.282-1.963,0.268-2.246,1.238c-0.281,0.95,0.26,1.96,1.227,2.245
				C33.547,55.583,34.551,55.03,34.837,54.074z M55.731,50.243c0.555,0.161,1.128-0.153,1.286-0.696
				c0.157-0.539-0.153-1.118-0.697-1.281c-0.542-0.158-1.116,0.155-1.279,0.699C54.883,49.515,55.194,50.088,55.731,50.243z
				 M52.123,54.225c0.67,0.2,1.375-0.189,1.571-0.855c0.205-0.68-0.182-1.386-0.852-1.582c-0.676-0.205-1.383,0.19-1.585,0.858
				C51.063,53.316,51.454,54.023,52.123,54.225z M47.492,57.029c0.864,0.251,1.753-0.235,2.008-1.096
				c0.249-0.846-0.233-1.745-1.094-1.998c-0.856-0.258-1.761,0.239-2.009,1.089C46.147,55.884,46.643,56.779,47.492,57.029z
				 M42.367,58.171c0.965,0.291,1.976-0.264,2.25-1.22c0.278-0.966-0.261-1.976-1.225-2.255c-0.969-0.286-1.975,0.267-2.259,1.233
				C40.853,56.883,41.405,57.885,42.367,58.171z"/>
			
				<linearGradient id="SVGID_3_" gradientUnits="userSpaceOnUse" x1="-136.5137" y1="129.6963" x2="-175.5802" y2="105.5549" gradientTransform="matrix(0.9732 0.2298 -0.2298 0.9732 221.3 -38.6791)">
				<stop  offset="0" style="stop-color:#F99D1C"/>
				<stop  offset="0.078" style="stop-color:#F78E1E"/>
				<stop  offset="0.1999" style="stop-color:#F57D20"/>
				<stop  offset="0.3335" style="stop-color:#F37321"/>
				<stop  offset="0.5" style="stop-color:#F37021"/>
				<stop  offset="0.6665" style="stop-color:#F37321"/>
				<stop  offset="0.8001" style="stop-color:#F57D20"/>
				<stop  offset="0.922" style="stop-color:#F78E1E"/>
				<stop  offset="1" style="stop-color:#F99D1C"/>
			</linearGradient>
			<path fill="url(#SVGID_3_)" d="M59.426,25.776c-1.01,1.066-2.708,1.122-3.784,0.102c-1.081-1.019-1.123-2.709-0.104-3.782
				c1.008-1.077,2.699-1.133,3.78-0.117C60.392,22.996,60.442,24.688,59.426,25.776z M32.744,19.691
				c-0.535-0.499-1.37-0.474-1.869,0.054c-0.498,0.531-0.473,1.358,0.055,1.864c0.534,0.497,1.368,0.475,1.867-0.057
				C33.298,21.025,33.269,20.189,32.744,19.691z M39.434,17.146c-0.661-0.617-1.688-0.579-2.302,0.071
				c-0.617,0.657-0.588,1.684,0.071,2.306c0.648,0.613,1.684,0.581,2.303-0.073C40.118,18.799,40.088,17.761,39.434,17.146z
				 M46.609,16.622c-0.832-0.784-2.14-0.737-2.925,0.086c-0.78,0.832-0.744,2.143,0.092,2.926c0.831,0.786,2.144,0.747,2.921-0.084
				C47.482,18.712,47.438,17.409,46.609,16.622z M53.398,18.36c-0.951-0.891-2.412-0.839-3.293,0.094
				c-0.882,0.935-0.844,2.403,0.093,3.292c0.935,0.882,2.418,0.836,3.294-0.095C54.371,20.715,54.333,19.238,53.398,18.36z
				 M27.073,24.148c-0.403-0.37-1.022-0.353-1.391,0.039c-0.375,0.398-0.358,1.018,0.038,1.392c0.403,0.377,1.021,0.355,1.39-0.04
				C27.484,25.142,27.466,24.521,27.073,24.148z M61.331,48.429c-0.5,0.528-0.476,1.365,0.054,1.87
				c0.536,0.5,1.372,0.473,1.872-0.062c0.496-0.528,0.476-1.365-0.056-1.867C62.666,47.873,61.832,47.898,61.331,48.429z
				 M63.024,41.611c-0.614,0.656-0.578,1.685,0.074,2.299c0.663,0.624,1.684,0.588,2.304-0.069c0.616-0.653,0.593-1.681-0.072-2.301
				C64.68,40.927,63.643,40.957,63.024,41.611z M62.503,34.431c-0.786,0.831-0.746,2.142,0.089,2.924
				c0.832,0.79,2.145,0.743,2.925-0.089c0.788-0.825,0.746-2.139-0.088-2.922C64.595,33.561,63.287,33.599,62.503,34.431z
				 M59.998,27.778c-0.881,0.933-0.841,2.408,0.1,3.291c0.938,0.885,2.412,0.832,3.289-0.1c0.886-0.938,0.843-2.403-0.1-3.294
				C62.358,26.794,60.882,26.844,59.998,27.778z M57.695,54.343c-0.37,0.396-0.35,1.02,0.043,1.392
				c0.4,0.368,1.019,0.353,1.388-0.05c0.376-0.391,0.361-1.014-0.042-1.382C58.697,53.926,58.067,53.944,57.695,54.343z
				 M29.278,57.783c1.015-1.078,0.964-2.766-0.111-3.789c-1.083-1.015-2.774-0.96-3.786,0.113c-1.01,1.089-0.964,2.767,0.117,3.789
				C26.572,58.91,28.27,58.862,29.278,57.783z M23.482,31.451c0.491-0.53,0.472-1.363-0.059-1.862
				c-0.53-0.505-1.363-0.474-1.863,0.048c-0.506,0.528-0.477,1.361,0.059,1.865C22.144,31.999,22.979,31.977,23.482,31.451z
				 M21.784,38.272c0.617-0.653,0.581-1.693-0.067-2.306c-0.665-0.623-1.696-0.589-2.308,0.071c-0.607,0.658-0.59,1.679,0.07,2.298
				C20.129,38.955,21.167,38.919,21.784,38.272z M22.307,45.448c0.785-0.827,0.747-2.141-0.087-2.932
				c-0.833-0.79-2.14-0.738-2.929,0.09c-0.779,0.827-0.742,2.145,0.091,2.927C20.216,46.32,21.524,46.279,22.307,45.448z
				 M24.809,52.104c0.882-0.934,0.837-2.415-0.094-3.292c-0.941-0.893-2.411-0.828-3.287,0.101c-0.882,0.927-0.852,2.401,0.088,3.29
				C22.458,53.081,23.935,53.033,24.809,52.104z M52.066,60.188c0.537,0.501,1.372,0.475,1.867-0.057
				c0.5-0.525,0.477-1.359-0.057-1.861c-0.529-0.502-1.363-0.478-1.863,0.053C51.512,58.855,51.537,59.69,52.066,60.188z
				 M45.377,62.731c0.658,0.62,1.688,0.579,2.304-0.072c0.616-0.647,0.593-1.683-0.066-2.3c-0.66-0.617-1.689-0.585-2.31,0.072
				C44.693,61.079,44.724,62.114,45.377,62.731z M38.197,63.249c0.841,0.791,2.142,0.753,2.925-0.081
				c0.786-0.829,0.752-2.143-0.082-2.925c-0.832-0.789-2.149-0.741-2.933,0.083C37.325,61.157,37.363,62.475,38.197,63.249z
				 M31.422,61.521c0.936,0.884,2.413,0.837,3.286-0.097c0.878-0.941,0.846-2.411-0.098-3.293c-0.937-0.88-2.414-0.834-3.292,0.105
				C30.44,59.159,30.482,60.635,31.422,61.521z"/>
			
				<linearGradient id="SVGID_4_" gradientUnits="userSpaceOnUse" x1="-38.4556" y1="98.4409" x2="-68.7402" y2="45.9863" gradientTransform="matrix(0.9932 0.1161 -0.1161 0.9932 104.0197 -25.5556)">
				<stop  offset="0" style="stop-color:#F99D1C"/>
				<stop  offset="0.078" style="stop-color:#F78E1E"/>
				<stop  offset="0.1999" style="stop-color:#F57D20"/>
				<stop  offset="0.3335" style="stop-color:#F37321"/>
				<stop  offset="0.5" style="stop-color:#F37021"/>
				<stop  offset="0.6665" style="stop-color:#F37321"/>
				<stop  offset="0.8001" style="stop-color:#F57D20"/>
				<stop  offset="0.922" style="stop-color:#F78E1E"/>
				<stop  offset="1" style="stop-color:#F99D1C"/>
			</linearGradient>
			<path fill="url(#SVGID_4_)" d="M70.298,31.444c-1.644,0.709-3.551-0.052-4.263-1.698c-0.711-1.653,0.05-3.548,1.698-4.261
				c1.642-0.707,3.547,0.042,4.259,1.695C72.704,28.822,71.942,30.734,70.298,31.444z M47.524,10.8
				c-0.196-0.979-1.136-1.6-2.104-1.404c-0.972,0.194-1.603,1.127-1.406,2.104c0.193,0.968,1.136,1.598,2.107,1.402
				C47.09,12.708,47.718,11.767,47.524,10.8z M55.207,12.471c-0.299-1.167-1.481-1.86-2.637-1.563
				c-1.161,0.294-1.864,1.469-1.565,2.636c0.295,1.159,1.48,1.864,2.638,1.563C54.801,14.813,55.502,13.628,55.207,12.471z
				 M62.29,15.891c-0.447-1.431-1.96-2.222-3.384-1.774c-1.422,0.442-2.226,1.954-1.777,3.385c0.444,1.424,1.965,2.22,3.386,1.774
				C61.942,18.83,62.734,17.313,62.29,15.891z M67.939,20.925c-0.574-1.553-2.29-2.33-3.828-1.76
				c-1.545,0.571-2.339,2.278-1.763,3.83c0.573,1.546,2.289,2.334,3.828,1.763C67.72,24.189,68.512,22.471,67.939,20.925z
				 M32.125,12.815c-0.286-0.666-1.053-0.964-1.714-0.68c-0.66,0.283-0.968,1.047-0.681,1.712c0.284,0.659,1.053,0.961,1.711,0.677
				C32.101,14.24,32.41,13.474,32.125,12.815z M64.619,55.793c-0.808,0.573-0.997,1.69-0.427,2.496
				c0.575,0.811,1.69,0.999,2.5,0.429c0.805-0.571,0.997-1.685,0.42-2.499C66.543,55.416,65.426,55.221,64.619,55.793z
				 M68.18,48.812c-1.012,0.642-1.316,1.982-0.674,2.991c0.643,1.015,1.981,1.312,2.992,0.672c1.01-0.639,1.316-1.973,0.672-2.992
				C70.528,48.474,69.188,48.174,68.18,48.812z M69.863,40.953c-1.297,0.727-1.764,2.377-1.032,3.683
				c0.734,1.306,2.383,1.759,3.679,1.027c1.305-0.73,1.769-2.373,1.034-3.677C72.811,40.683,71.168,40.219,69.863,40.953z
				 M69.762,33.072c-1.471,0.728-2.077,2.518-1.348,3.99c0.736,1.487,2.52,2.08,3.996,1.35c1.472-0.727,2.083-2.509,1.347-3.992
				C73.028,32.947,71.234,32.341,69.762,33.072z M53.365,65.36c-0.66,0.283-0.966,1.049-0.681,1.708
				c0.288,0.665,1.052,0.965,1.712,0.682c0.661-0.284,0.969-1.05,0.684-1.713C54.794,65.377,54.025,65.073,53.365,65.36z
				 M17.075,54.398c1.642-0.71,2.399-2.62,1.689-4.265c-0.71-1.65-2.616-2.4-4.256-1.691c-1.644,0.707-2.41,2.609-1.697,4.262
				C13.519,54.349,15.435,55.105,17.075,54.398z M20.186,24.09c0.806-0.574,0.998-1.691,0.426-2.494
				c-0.575-0.814-1.687-0.998-2.493-0.427c-0.808,0.573-1.005,1.682-0.426,2.497C18.264,24.469,19.381,24.661,20.186,24.09z
				 M16.628,31.072c1.015-0.64,1.313-1.983,0.673-2.998c-0.643-1.015-1.98-1.307-2.994-0.668c-1.006,0.642-1.315,1.973-0.669,2.991
				C14.277,31.408,15.618,31.71,16.628,31.072z M14.939,38.931c1.302-0.729,1.765-2.379,1.034-3.681
				c-0.733-1.305-2.381-1.762-3.682-1.029c-1.304,0.729-1.766,2.372-1.033,3.678C11.99,39.197,13.637,39.664,14.939,38.931z
				 M15.043,46.812c1.475-0.729,2.079-2.519,1.347-3.995c-0.734-1.486-2.517-2.08-3.997-1.345c-1.468,0.725-2.083,2.508-1.349,3.992
				C11.777,46.94,13.569,47.542,15.043,46.812z M37.28,69.086c0.195,0.974,1.14,1.601,2.108,1.408
				c0.967-0.197,1.598-1.139,1.403-2.113c-0.194-0.966-1.139-1.596-2.107-1.402C37.715,67.174,37.086,68.121,37.28,69.086z
				 M29.603,67.411c0.295,1.167,1.476,1.861,2.634,1.566c1.162-0.298,1.864-1.471,1.568-2.637c-0.294-1.16-1.479-1.86-2.64-1.563
				C30.007,65.073,29.307,66.249,29.603,67.411z M22.515,63.991c0.447,1.436,1.957,2.223,3.382,1.774
				c1.426-0.442,2.226-1.952,1.779-3.381c-0.445-1.425-1.964-2.22-3.389-1.776C22.863,61.05,22.069,62.566,22.515,63.991z
				 M16.864,58.954c0.576,1.558,2.292,2.333,3.83,1.76c1.548-0.573,2.339-2.275,1.763-3.83c-0.571-1.542-2.286-2.332-3.83-1.759
				C17.085,55.696,16.292,57.416,16.864,58.954z M59.507,61.58c-0.601,0.482-0.707,1.359-0.229,1.963
				c0.48,0.609,1.361,0.706,1.965,0.229c0.607-0.479,0.711-1.355,0.233-1.965C60.997,61.204,60.119,61.102,59.507,61.58z
				 M46.396,67.232c-0.76,0.114-1.291,0.824-1.178,1.589c0.111,0.767,0.825,1.292,1.585,1.18c0.765-0.115,1.297-0.819,1.184-1.585
				C47.878,67.649,47.166,67.123,46.396,67.232z M39.592,11.062C39.48,10.297,38.767,9.771,38,9.884
				c-0.761,0.113-1.292,0.817-1.18,1.585c0.114,0.767,0.824,1.291,1.588,1.181C39.172,12.537,39.703,11.831,39.592,11.062z
				 M25.527,16.337c-0.481-0.608-1.357-0.704-1.966-0.229c-0.603,0.481-0.71,1.355-0.23,1.965c0.481,0.608,1.361,0.708,1.964,0.23
				C25.901,17.822,26.008,16.947,25.527,16.337z"/>
			<linearGradient id="SVGID_5_" gradientUnits="userSpaceOnUse" x1="42.4014" y1="78.7266" x2="42.4014" y2="1.1553">
				<stop  offset="0" style="stop-color:#F99D1C"/>
				<stop  offset="0.078" style="stop-color:#F78E1E"/>
				<stop  offset="0.1999" style="stop-color:#F57D20"/>
				<stop  offset="0.3335" style="stop-color:#F37321"/>
				<stop  offset="0.5" style="stop-color:#F37021"/>
				<stop  offset="0.6665" style="stop-color:#F37321"/>
				<stop  offset="0.8001" style="stop-color:#F57D20"/>
				<stop  offset="0.922" style="stop-color:#F78E1E"/>
				<stop  offset="1" style="stop-color:#F99D1C"/>
			</linearGradient>
			<path fill="url(#SVGID_5_)" d="M79.518,44.095c-2.292,0-4.148-1.862-4.148-4.16c0-2.303,1.856-4.147,4.155-4.147
				c2.29,0,4.151,1.845,4.151,4.153C83.675,42.233,81.814,44.095,79.518,44.095z M63.208,8.266c0.267-1.247-0.528-2.456-1.765-2.718
				c-1.241-0.265-2.457,0.517-2.721,1.761c-0.263,1.239,0.526,2.456,1.767,2.719C61.727,10.291,62.945,9.501,63.208,8.266z
				 M71.394,14.127c0.243-1.523-0.797-2.936-2.306-3.177c-1.516-0.239-2.938,0.784-3.181,2.307c-0.239,1.515,0.794,2.942,2.31,3.182
				C69.728,16.679,71.155,15.642,71.394,14.127z M77.99,21.742c0.2-1.911-1.179-3.606-3.08-3.807
				c-1.897-0.2-3.607,1.173-3.809,3.084c-0.199,1.899,1.188,3.605,3.083,3.806C76.088,25.025,77.79,23.641,77.99,21.742z
				 M82.079,30.529c0.112-2.117-1.513-3.9-3.611-4.01c-2.105-0.111-3.903,1.493-4.013,3.611c-0.111,2.106,1.508,3.904,3.606,4.014
				C80.168,34.253,81.97,32.636,82.079,30.529z M44.074,2.821c0-0.925-0.75-1.666-1.672-1.666c-0.918,0-1.667,0.741-1.667,1.666
				c0,0.923,0.749,1.668,1.667,1.668C43.324,4.489,44.074,3.745,44.074,2.821z M60.49,69.852c-1.241,0.263-2.032,1.484-1.767,2.719
				c0.265,1.245,1.48,2.033,2.721,1.768c1.236-0.261,2.029-1.475,1.765-2.723C62.945,70.382,61.727,69.588,60.49,69.852z
				 M68.218,63.446c-1.517,0.24-2.553,1.662-2.311,3.178c0.241,1.522,1.665,2.546,3.18,2.308c1.509-0.24,2.548-1.653,2.306-3.179
				C71.153,64.237,69.729,63.209,68.218,63.446z M74.185,55.057c-1.897,0.199-3.282,1.904-3.083,3.807
				c0.201,1.91,1.911,3.278,3.807,3.08c1.903-0.202,3.281-1.895,3.082-3.805C77.789,56.236,76.086,54.857,74.185,55.057z
				 M78.061,45.736c-2.098,0.111-3.717,1.909-3.606,4.012c0.11,2.12,1.907,3.72,4.013,3.611c2.099-0.109,3.721-1.891,3.611-4.011
				C81.969,47.247,80.168,45.627,78.061,45.736z M42.401,75.394c-0.918,0-1.667,0.745-1.667,1.667c0,0.923,0.749,1.666,1.667,1.666
				c0.923,0,1.672-0.742,1.672-1.668C44.074,76.138,43.324,75.394,42.401,75.394z M5.286,44.095c2.287,0,4.146-1.862,4.146-4.16
				c0-2.303-1.86-4.147-4.146-4.147c-2.289,0-4.159,1.845-4.159,4.153C1.127,42.233,2.997,44.095,5.286,44.095z M24.315,10.028
				c1.239-0.263,2.03-1.48,1.766-2.719c-0.264-1.244-1.479-2.026-2.719-1.762c-1.237,0.263-2.031,1.472-1.767,2.719
				C21.858,9.501,23.078,10.291,24.315,10.028z M16.589,16.438c1.517-0.24,2.552-1.666,2.312-3.182
				c-0.241-1.522-1.663-2.547-3.181-2.306c-1.512,0.24-2.547,1.652-2.306,3.175C13.653,15.64,15.076,16.677,16.589,16.438z
				 M10.617,24.824c1.9-0.2,3.284-1.905,3.083-3.805c-0.2-1.911-1.906-3.285-3.805-3.084c-1.905,0.2-3.283,1.896-3.081,3.807
				C7.013,23.641,8.712,25.025,10.617,24.824z M6.741,34.144c2.104-0.11,3.721-1.908,3.611-4.014
				c-0.11-2.118-1.906-3.722-4.019-3.611c-2.096,0.109-3.723,1.893-3.611,4.01C2.833,32.636,4.637,34.253,6.741,34.144z
				 M21.597,71.617c-0.267,1.246,0.528,2.46,1.764,2.724c1.238,0.262,2.456-0.526,2.721-1.771c0.263-1.235-0.528-2.456-1.766-2.719
				C23.078,69.588,21.858,70.382,21.597,71.617z M13.416,65.752c-0.243,1.525,0.792,2.939,2.305,3.179
				c1.517,0.239,2.939-0.786,3.181-2.308c0.24-1.513-0.796-2.937-2.312-3.176C15.077,63.209,13.654,64.24,13.416,65.752z
				 M6.814,58.14c-0.201,1.911,1.175,3.601,3.08,3.804c1.9,0.198,3.605-1.17,3.805-3.08c0.202-1.902-1.182-3.608-3.083-3.807
				C8.714,54.856,7.013,56.237,6.814,58.14z M2.724,49.348c-0.11,2.12,1.514,3.902,3.611,4.011c2.112,0.11,3.908-1.491,4.02-3.611
				c0.109-2.103-1.508-3.901-3.612-4.012C4.638,45.627,2.833,47.247,2.724,49.348z M51.544,74.064
				c-0.953,0.257-1.522,1.239-1.268,2.196c0.258,0.957,1.242,1.519,2.195,1.264c0.958-0.256,1.527-1.233,1.271-2.193
				C53.488,74.376,52.501,73.81,51.544,74.064z M33.257,74.064c-0.951-0.254-1.937,0.312-2.194,1.27
				c-0.255,0.958,0.315,1.935,1.269,2.19c0.958,0.255,1.941-0.307,2.197-1.266C34.784,75.303,34.215,74.321,33.257,74.064z
				 M53.745,4.551C54,3.593,53.428,2.615,52.472,2.359c-0.955-0.254-1.935,0.304-2.193,1.264c-0.257,0.958,0.313,1.938,1.267,2.194
				C52.502,6.073,53.488,5.508,53.745,4.551z M34.528,3.621c-0.258-0.958-1.24-1.519-2.197-1.262
				c-0.954,0.255-1.525,1.232-1.269,2.189c0.257,0.96,1.244,1.524,2.194,1.268C34.215,5.561,34.784,4.58,34.528,3.621z"/>
		</g>
	</g>
</g>
<g>
	<path fill="#85878A" d="M106.81,59.581c-0.179-0.039-0.423-0.077-0.667-0.077c-0.436,0-0.667,0.179-0.667,0.718v0.525h1.128v1.243
		h-1.128v4.96h-1.563v-4.96h-0.731v-1.243h0.731v-0.551c0-1.269,0.551-1.91,1.858-1.91c0.436,0,0.833,0.077,1.115,0.18
		L106.81,59.581z"/>
	<path fill="#85878A" d="M110.554,62.132c-1.051,0-1.487,0.679-1.487,1.922v2.897h-1.577v-6.204h1.525v1.167
		c0.244-0.756,0.667-1.244,1.538-1.244c0.179,0,0.423,0.026,0.539,0.064v1.436C110.926,62.145,110.733,62.132,110.554,62.132z"/>
	<path fill="#85878A" d="M114.427,67.08c-1.961,0-2.961-1.359-2.961-3.23c0-1.871,1.013-3.229,2.961-3.229s2.948,1.358,2.948,3.229
		C117.375,65.721,116.375,67.08,114.427,67.08z M114.427,61.863c-0.974,0-1.397,0.718-1.397,1.986c0,1.269,0.423,1.987,1.397,1.987
		s1.384-0.718,1.384-1.987C115.811,62.581,115.401,61.863,114.427,61.863z"/>
	<path fill="#85878A" d="M122.325,66.951v-3.96c0-0.654-0.321-1.025-0.974-1.025c-0.82,0-1.23,0.577-1.23,1.602v3.384h-1.564v-6.204
		h1.513v1.077c0.256-0.654,0.872-1.205,1.846-1.205c1.051,0,1.551,0.384,1.858,1.192c0.32-0.628,0.949-1.192,1.91-1.192
		c1.436,0,1.987,0.769,1.987,2.115v4.217h-1.564v-3.96c0-0.654-0.32-1.025-0.974-1.025c-0.782,0-1.244,0.525-1.244,1.474v3.512
		H122.325z"/>
	<path fill="#85878A" d="M135.172,59.799v7.152h-1.602v-7.152h-2.448v-1.385h6.511v1.385H135.172z"/>
	<path fill="#85878A" d="M142.583,66.951v-3.96c0-0.654-0.32-1.025-0.987-1.025c-0.872,0-1.358,0.577-1.358,1.602v3.384h-1.564
		v-8.537h1.564v3.371c0.308-0.667,0.936-1.166,1.922-1.166c1.423,0,1.987,0.769,1.987,2.115v4.217H142.583z"/>
	<path fill="#85878A" d="M148.213,67.08c-1.961,0-2.961-1.359-2.961-3.23c0-1.871,1.013-3.229,2.961-3.229s2.948,1.358,2.948,3.229
		C151.161,65.721,150.161,67.08,148.213,67.08z M148.213,61.863c-0.974,0-1.397,0.718-1.397,1.986c0,1.269,0.423,1.987,1.397,1.987
		s1.384-0.718,1.384-1.987C149.597,62.581,149.187,61.863,148.213,61.863z"/>
	<path fill="#85878A" d="M156.111,66.951v-3.96c0-0.654-0.321-1.025-0.974-1.025c-0.82,0-1.23,0.577-1.23,1.602v3.384h-1.564v-6.204
		h1.513v1.077c0.256-0.654,0.872-1.205,1.846-1.205c1.051,0,1.551,0.384,1.858,1.192c0.32-0.628,0.949-1.192,1.91-1.192
		c1.436,0,1.987,0.769,1.987,2.115v4.217h-1.564v-3.96c0-0.654-0.32-1.025-0.974-1.025c-0.782,0-1.244,0.525-1.244,1.474v3.512
		H156.111z"/>
	<path fill="#85878A" d="M164.958,67.08c-0.743,0-1.615-0.192-2.333-0.475l0.333-1.128c0.653,0.256,1.333,0.436,1.974,0.436
		s0.948-0.192,0.948-0.641c0-0.372-0.256-0.525-0.974-0.73c-1.82-0.525-2.32-1.025-2.32-2.051c0-1.269,0.897-1.871,2.423-1.871
		c0.897,0,1.576,0.153,2.14,0.423l-0.282,1.128c-0.5-0.218-1.141-0.397-1.808-0.397c-0.615,0-0.936,0.128-0.936,0.551
		c0,0.449,0.346,0.538,1.295,0.82c1.179,0.346,1.999,0.743,1.999,1.871C167.419,66.31,166.509,67.08,164.958,67.08z"/>
	<path fill="#85878A" d="M171.087,67.08c-1.961,0-2.961-1.359-2.961-3.23c0-1.871,1.013-3.229,2.961-3.229s2.948,1.358,2.948,3.229
		C174.035,65.721,173.036,67.08,171.087,67.08z M171.087,61.863c-0.974,0-1.397,0.718-1.397,1.986c0,1.269,0.423,1.987,1.397,1.987
		s1.384-0.718,1.384-1.987C172.472,62.581,172.062,61.863,171.087,61.863z"/>
	<path fill="#85878A" d="M179.126,66.951v-3.96c0-0.654-0.321-1.025-0.987-1.025c-0.872,0-1.358,0.577-1.358,1.602v3.384h-1.564
		v-6.204h1.513v1.077c0.308-0.641,0.923-1.205,1.974-1.205c1.423,0,1.987,0.769,1.987,2.115v4.217H179.126z"/>
	<path fill="#85878A" d="M189.986,63.593l2.294,3.358h-2.013l-2.038-3.191h-1.589v3.191h-1.603v-8.537h3.91
		c1.794,0,2.82,1.077,2.82,2.666C191.768,62.247,191.088,63.208,189.986,63.593z M188.704,59.709h-2.063v2.781h2.063
		c0.884,0,1.461-0.513,1.461-1.41C190.165,60.209,189.588,59.709,188.704,59.709z"/>
	<path fill="#85878A" d="M194.385,64.414c0.09,0.961,0.628,1.5,1.782,1.5c0.692,0,1.32-0.167,1.884-0.423l0.269,1.064
		c-0.654,0.321-1.474,0.526-2.397,0.526c-2.141,0-3.127-1.256-3.127-3.23c0-1.82,0.91-3.229,2.974-3.229
		c1.833,0,2.602,1.243,2.602,3.012v0.782H194.385z M194.372,63.311h2.525v-0.167c0-0.872-0.32-1.449-1.154-1.449
		C194.872,61.696,194.475,62.247,194.372,63.311z"/>
	<path fill="#85878A" d="M201.039,60.748v3.96c0,0.654,0.308,1.025,0.961,1.025c0.859,0,1.32-0.602,1.32-1.615v-3.371h1.564v6.204
		h-1.525v-1.077c-0.295,0.628-0.91,1.205-1.936,1.205c-1.372,0-1.948-0.795-1.948-2.115v-4.217H201.039z"/>
	<path fill="#85878A" d="M208.514,67.08c-1.192,0-1.717-0.551-1.717-1.705v-3.307h-0.833v-1.32h0.833v-1.602h1.563v1.602h1.308v1.32
		h-1.308v3.153c0,0.41,0.154,0.603,0.641,0.603c0.18,0,0.397-0.026,0.59-0.064l0.039,1.153
		C209.334,67.002,208.924,67.08,208.514,67.08z"/>
	<path fill="#85878A" d="M211.951,64.414c0.09,0.961,0.628,1.5,1.782,1.5c0.692,0,1.32-0.167,1.884-0.423l0.269,1.064
		c-0.654,0.321-1.474,0.526-2.397,0.526c-2.141,0-3.127-1.256-3.127-3.23c0-1.82,0.91-3.229,2.974-3.229
		c1.833,0,2.602,1.243,2.602,3.012v0.782H211.951z M211.938,63.311h2.525v-0.167c0-0.872-0.32-1.449-1.154-1.449
		C212.438,61.696,212.041,62.247,211.938,63.311z"/>
	<path fill="#85878A" d="M220.169,62.132c-1.051,0-1.487,0.679-1.487,1.922v2.897h-1.577v-6.204h1.525v1.167
		c0.244-0.756,0.667-1.244,1.538-1.244c0.18,0,0.423,0.026,0.538,0.064v1.436C220.541,62.145,220.349,62.132,220.169,62.132z"/>
	<path fill="#85878A" d="M223.49,67.08c-0.743,0-1.615-0.192-2.333-0.475l0.333-1.128c0.653,0.256,1.333,0.436,1.974,0.436
		s0.948-0.192,0.948-0.641c0-0.372-0.256-0.525-0.974-0.73c-1.82-0.525-2.32-1.025-2.32-2.051c0-1.269,0.897-1.871,2.423-1.871
		c0.897,0,1.576,0.153,2.14,0.423L225.4,62.17c-0.5-0.218-1.141-0.397-1.808-0.397c-0.615,0-0.936,0.128-0.936,0.551
		c0,0.449,0.346,0.538,1.295,0.82c1.179,0.346,1.999,0.743,1.999,1.871C225.951,66.31,225.042,67.08,223.49,67.08z"/>
</g>
</svg>
