<?xml version="1.0" encoding="utf-8"?>
<!-- Generator: Adobe Illustrator 16.0.0, SVG Export Plug-In . SVG Version: 6.00 Build 0)  -->
<!DOCTYPE svg PUBLIC "-//W3C//DTD SVG 1.1//EN" "http://www.w3.org/Graphics/SVG/1.1/DTD/svg11.dtd">
<svg version="1.1" id="Layer_1" xmlns="http://www.w3.org/2000/svg" xmlns:xlink="http://www.w3.org/1999/xlink" x="0px" y="0px"
	 width="272px" height="80px" viewBox="-58.5 -12 272 80" enable-background="new -58.5 -12 272 80" xml:space="preserve">
<g>
	<g>
		<path fill="#86888A" d="M27.684,24.607h-3.661v10.538c0,0.2-0.164,0.366-0.368,0.366h-1.813c-0.204,0-0.365-0.166-0.365-0.366
			V24.607h-3.665c-0.2,0-0.368-0.127-0.368-0.33v-1.449c0-0.203,0.168-0.348,0.368-0.348h9.872c0.202,0,0.369,0.146,0.369,0.348
			v1.449C28.052,24.481,27.886,24.607,27.684,24.607z M40.921,35.511h-1.815c-0.205,0-0.37-0.166-0.37-0.366v-5.312h-5.81v5.312
			c0,0.2-0.167,0.366-0.364,0.366h-1.817c-0.204,0-0.367-0.166-0.367-0.366V22.829c0-0.203,0.163-0.348,0.367-0.348h1.817
			c0.198,0,0.364,0.146,0.364,0.348v4.765h5.81v-4.765c0-0.203,0.165-0.348,0.37-0.348h1.815c0.198,0,0.364,0.146,0.364,0.348
			v12.316C41.285,35.345,41.119,35.511,40.921,35.511z M50.01,35.657c-3.027,0-5.827-1.688-5.827-5.725v-1.876
			c0-4.036,2.799-5.722,5.827-5.722c3.027,0,5.831,1.687,5.831,5.722v1.876C55.841,33.969,53.037,35.657,50.01,35.657z
			 M53.271,28.056c0-2.42-1.462-3.502-3.26-3.502s-3.26,1.082-3.26,3.502v1.876c0,2.42,1.462,3.502,3.26,3.502
			s3.26-1.079,3.26-3.502V28.056z M71.647,35.511h-1.854c-0.163,0-0.291-0.187-0.291-0.366v-7.932c0-0.129-0.02-0.183-0.06-0.183
			c-0.015,0-0.051,0.053-0.089,0.109l-2.96,6.56c-0.109,0.2-0.346,0.312-0.584,0.312h-0.957c-0.239,0-0.478-0.112-0.583-0.312
			l-2.98-6.56c-0.039-0.056-0.077-0.109-0.094-0.109c-0.035,0-0.054,0.053-0.054,0.183v7.932c0,0.18-0.13,0.368-0.293,0.368h-1.851
			c-0.168,0-0.316-0.093-0.316-0.276V23.214c0-0.404,0.331-0.732,0.735-0.732h1.504c0.291,0,0.548,0.182,0.677,0.44l3.521,7.164
			c0.09,0.166,0.127,0.258,0.204,0.258c0.072,0,0.109-0.092,0.205-0.258l3.519-7.164c0.129-0.259,0.386-0.44,0.678-0.44h1.505
			c0.404,0,0.734,0.329,0.734,0.732v12.022C71.962,35.418,71.812,35.511,71.647,35.511z M111.94,35.511h-1.854
			c-0.442,0-0.828,0-1.117-0.658l-4.977-8.337c-0.055-0.109-0.11-0.149-0.164-0.149s-0.092,0.04-0.092,0.149v8.629
			c0,0.2-0.146,0.366-0.35,0.366h-1.555c-0.205,0-0.369-0.166-0.369-0.366V23.211c0-0.404,0.327-0.732,0.73-0.732h1.984
			c0.384,0,0.584,0.109,0.805,0.589l5.175,8.826c0.033,0.091,0.088,0.148,0.146,0.148c0.037,0,0.089-0.058,0.089-0.17v-9.047
			c0-0.203,0.148-0.348,0.352-0.348h1.578c0.2,0,0.349,0.145,0.349,0.348v11.947C112.673,35.182,112.341,35.511,111.94,35.511z
			 M79.827,35.666c-1.621,0-3.263-0.281-4.146-0.484c-0.183-0.034-0.35-0.163-0.35-0.364v-1.323c0-0.196,0.166-0.348,0.35-0.348
			c0.017,0,0.017,0,0.036,0c0.734,0.094,2.45,0.331,4.146,0.331c1.634,0,2.128-0.584,2.128-1.648c0-1.376-3.278-2.137-4.881-2.799
			c-1.597-0.659-2.162-1.923-2.162-3.205c0-2.02,1.625-3.486,5.035-3.486c1.749,0,3.35,0.331,3.973,0.481
			c0.184,0.034,0.327,0.163,0.327,0.348v1.357c0,0.181-0.125,0.33-0.311,0.33c-0.019,0-0.019,0-0.036,0
			c-1.214-0.11-2.469-0.333-4.065-0.333c-1.354,0-2.374,0.478-2.374,1.304c0,0.603,0.69,1.158,1.503,1.482
			c0.813,0.32,1.882,0.736,3.103,1.227c1.55,0.626,2.551,1.537,2.551,3.297C84.655,33.685,83.5,35.666,79.827,35.666z
			 M92.795,35.657c-3.028,0-5.83-1.688-5.83-5.725v-1.876c0-4.036,2.802-5.722,5.83-5.722c3.026,0,5.826,1.687,5.826,5.722v1.876
			C98.621,33.969,95.821,35.657,92.795,35.657z M96.056,28.056c0-2.42-1.465-3.502-3.261-3.502c-1.799,0-3.263,1.082-3.263,3.502
			v1.876c0,2.42,1.464,3.502,3.263,3.502c1.795,0,3.261-1.079,3.261-3.502V28.056z M131.696,35.511h-2.24
			c-0.201,0-0.272-0.187-0.363-0.366l-2.645-4.449h-0.407c-0.476,0-1.961-0.053-2.381-0.074v4.521c0,0.202-0.149,0.368-0.351,0.368
			h-1.834c-0.203,0-0.37-0.166-0.37-0.368V23.121c0-0.368,0.223-0.496,0.589-0.55c0.957-0.146,3.007-0.236,4.347-0.236
			c2.823,0,5.433,1.01,5.433,4.145v0.167c0,1.942-0.97,3.003-2.477,3.589l2.88,4.91c0.038,0.052,0.038,0.105,0.038,0.146
			C131.915,35.418,131.844,35.511,131.696,35.511z M128.946,26.479c0-1.376-1.069-1.961-2.905-1.961
			c-0.386,0-2.053,0.036-2.381,0.072v3.979c0.291,0.018,2.069,0.054,2.381,0.054c1.89,0,2.905-0.365,2.905-1.978V26.479z
			 M136.807,31.896c0,1.537,0.059,1.578,1.445,1.578h4.646c0.2,0,0.367,0.166,0.367,0.367v1.172c0,0.259-0.093,0.352-0.367,0.388
			c-0.589,0.092-1.784,0.256-3.964,0.256c-3.047,0-4.66,0.022-4.66-3.76v-5.803c0-3.78,1.613-3.758,4.66-3.758
			c2.18,0,3.375,0.165,3.964,0.254c0.273,0.036,0.367,0.129,0.367,0.388v1.169c0,0.201-0.167,0.371-0.367,0.371h-4.646
			c-1.387,0-1.445,0.041-1.445,1.576v1.682h5.873c0.2,0,0.364,0.167,0.364,0.366v1.323c0,0.2-0.164,0.37-0.364,0.37h-5.873V31.896z
			 M151.501,35.657c-2.952,0-5.495-1.284-5.495-5.193v-7.635c0-0.203,0.168-0.348,0.372-0.348h1.813
			c0.203,0,0.365,0.146,0.365,0.348v7.635c0,2.092,0.97,3.083,2.944,3.083c1.986,0,2.946-0.991,2.946-3.083v-7.635
			c0-0.203,0.166-0.348,0.369-0.348h1.816c0.203,0,0.368,0.146,0.368,0.348v7.635C157,34.373,154.456,35.657,151.501,35.657z
			 M169.061,24.607h-3.657v10.538c0,0.2-0.168,0.366-0.374,0.366h-1.812c-0.203,0-0.369-0.166-0.369-0.366V24.607h-3.661
			c-0.201,0-0.366-0.127-0.366-0.33v-1.449c0-0.203,0.165-0.348,0.366-0.348h9.873c0.2,0,0.363,0.146,0.363,0.348v1.449
			C169.426,24.481,169.26,24.607,169.061,24.607z M193.972,35.511h-2.241c-0.202,0-0.271-0.187-0.363-0.366l-2.643-4.449h-0.41
			c-0.475,0-1.962-0.053-2.386-0.074v4.521c0,0.202-0.143,0.368-0.344,0.368h-1.832c-0.205,0-0.367-0.166-0.367-0.368V23.121
			c0-0.368,0.215-0.496,0.583-0.55c0.955-0.146,3.009-0.236,4.345-0.236c2.827,0,5.434,1.01,5.434,4.145v0.167
			c0,1.942-0.972,3.003-2.475,3.589l2.882,4.91c0.036,0.052,0.036,0.105,0.036,0.146C194.193,35.418,194.117,35.511,193.972,35.511z
			 M191.223,26.479c0-1.376-1.069-1.961-2.907-1.961c-0.383,0-2.053,0.036-2.386,0.072v3.979c0.299,0.018,2.079,0.054,2.386,0.054
			c1.893,0,2.907-0.365,2.907-1.978V26.479z M200.974,35.666c-1.62,0-3.264-0.281-4.147-0.484c-0.179-0.034-0.348-0.163-0.348-0.364
			v-1.323c0-0.196,0.169-0.348,0.348-0.348c0.021,0,0.021,0,0.039,0c0.731,0.094,2.451,0.331,4.145,0.331
			c1.632,0,2.134-0.584,2.134-1.648c0-1.376-3.286-2.137-4.89-2.799c-1.597-0.659-2.16-1.923-2.16-3.205
			c0-2.02,1.625-3.486,5.035-3.486c1.748,0,3.349,0.331,3.971,0.481c0.186,0.034,0.328,0.163,0.328,0.348v1.357
			c0,0.181-0.126,0.33-0.309,0.33c-0.021,0-0.021,0-0.037,0c-1.211-0.11-2.466-0.333-4.061-0.333c-1.36,0-2.379,0.478-2.379,1.304
			c0,0.603,0.692,1.156,1.505,1.482c0.812,0.32,1.882,0.736,3.103,1.227c1.544,0.626,2.548,1.537,2.548,3.297
			C205.799,33.685,204.644,35.666,200.974,35.666z M173.845,31.896c0,1.537,0.057,1.578,1.448,1.578h4.645
			c0.197,0,0.365,0.166,0.365,0.367v1.172c0,0.259-0.091,0.352-0.365,0.388c-0.59,0.092-1.784,0.256-3.964,0.256
			c-3.05,0-4.662,0.022-4.662-3.76v-5.803c0-3.78,1.612-3.758,4.662-3.758c2.18,0,3.374,0.165,3.964,0.254
			c0.274,0.036,0.365,0.129,0.365,0.388v1.169c0,0.201-0.168,0.371-0.365,0.371h-4.645c-1.392,0-1.448,0.041-1.448,1.576v1.682
			h5.872c0.203,0,0.366,0.167,0.366,0.366v1.323c0,0.2-0.16,0.37-0.366,0.37h-5.872V31.896z M210.062,23.123v-0.28
			c0-0.039-0.031-0.067-0.071-0.067h-1.913c-0.037,0-0.07,0.028-0.07,0.067v0.28c0,0.039,0.029,0.063,0.07,0.063h0.713v2.042
			c0,0.039,0.03,0.071,0.069,0.071h0.352c0.04,0,0.07-0.032,0.07-0.071v-2.042h0.712C210.029,23.188,210.062,23.162,210.062,23.123z
			 M213,25.247v-2.329c0-0.08-0.064-0.143-0.145-0.143h-0.292c-0.054,0-0.105,0.035-0.132,0.085l-0.681,1.389
			c-0.016,0.031-0.024,0.049-0.036,0.049c-0.016,0-0.023-0.018-0.041-0.049l-0.682-1.389c-0.026-0.05-0.074-0.085-0.132-0.085
			h-0.292c-0.078,0-0.144,0.063-0.144,0.143v2.329c0,0.035,0.028,0.055,0.061,0.055h0.36c0.032,0,0.058-0.036,0.058-0.071v-1.538
			c0-0.025,0.005-0.036,0.011-0.036c0.004,0,0.014,0.01,0.019,0.021l0.575,1.272c0.021,0.038,0.068,0.061,0.115,0.061h0.186
			c0.045,0,0.09-0.023,0.111-0.061l0.575-1.272c0.01-0.01,0.015-0.021,0.021-0.021c0.008,0,0.011,0.01,0.011,0.036v1.538
			c0,0.035,0.021,0.071,0.054,0.071h0.36C212.971,25.301,213,25.281,213,25.247z"/>
		<path fill="#F6891F" d="M-13.923,18.29c-0.764,0.808-2.047,0.85-2.86,0.078c-0.817-0.771-0.849-2.049-0.08-2.86
			c0.764-0.814,2.042-0.856,2.859-0.087C-13.191,16.189-13.154,17.467-13.923,18.29z M-34.097,13.689
			c-0.405-0.377-1.036-0.358-1.414,0.041c-0.375,0.401-0.358,1.028,0.041,1.41c0.405,0.376,1.035,0.359,1.413-0.042
			C-33.677,14.699-33.7,14.066-34.097,13.689z M-29.04,11.765c-0.499-0.465-1.275-0.437-1.741,0.055
			c-0.465,0.497-0.444,1.273,0.055,1.745c0.491,0.463,1.273,0.438,1.741-0.056C-28.521,13.016-28.543,12.23-29.04,11.765z
			 M-23.612,11.368c-0.63-0.593-1.618-0.558-2.211,0.064c-0.59,0.628-0.563,1.621,0.07,2.212c0.629,0.596,1.622,0.565,2.21-0.062
			C-22.953,12.949-22.987,11.964-23.612,11.368z M-18.48,12.683c-0.72-0.675-1.825-0.634-2.491,0.072
			c-0.667,0.706-0.638,1.815,0.07,2.489c0.708,0.668,1.829,0.633,2.492-0.072C-17.744,14.466-17.774,13.348-18.48,12.683z
			 M-38.384,17.058c-0.306-0.28-0.772-0.266-1.052,0.031c-0.284,0.3-0.271,0.768,0.03,1.05c0.304,0.287,0.772,0.27,1.052-0.029
			C-38.073,17.81-38.087,17.34-38.384,17.058z M-12.482,35.418c-0.378,0.397-0.36,1.033,0.04,1.415
			c0.405,0.377,1.038,0.354,1.416-0.047c0.375-0.4,0.359-1.032-0.042-1.412C-11.473,34.998-12.104,35.019-12.482,35.418z
			 M-11.202,30.261c-0.463,0.495-0.436,1.276,0.057,1.741c0.501,0.472,1.274,0.441,1.742-0.055c0.465-0.492,0.448-1.269-0.055-1.739
			C-9.951,29.743-10.734,29.769-11.202,30.261z M-11.595,24.834c-0.595,0.627-0.564,1.619,0.067,2.211
			c0.628,0.596,1.62,0.561,2.211-0.067c0.595-0.625,0.562-1.618-0.067-2.211C-10.013,24.176-11.004,24.203-11.595,24.834z
			 M-13.491,19.805c-0.667,0.705-0.636,1.822,0.076,2.488c0.708,0.668,1.825,0.63,2.486-0.074c0.669-0.709,0.637-1.818-0.075-2.491
			C-11.705,19.06-12.822,19.098-13.491,19.805z M-15.231,39.891c-0.281,0.298-0.266,0.771,0.032,1.051
			c0.303,0.279,0.77,0.266,1.049-0.037c0.282-0.298,0.272-0.767-0.032-1.045C-14.474,39.572-14.95,39.588-15.231,39.891z
			 M-36.717,42.49c0.769-0.815,0.728-2.093-0.084-2.865c-0.82-0.767-2.098-0.728-2.862,0.086c-0.762,0.823-0.728,2.09,0.088,2.864
			C-38.762,43.344-37.48,43.305-36.717,42.49z M-41.099,22.58c0.371-0.399,0.356-1.031-0.045-1.408
			c-0.402-0.38-1.029-0.356-1.409,0.038c-0.383,0.4-0.361,1.028,0.044,1.41C-42.11,22.995-41.48,22.979-41.099,22.58z
			 M-42.383,27.738c0.467-0.494,0.439-1.28-0.05-1.745c-0.501-0.47-1.282-0.445-1.745,0.053c-0.458,0.5-0.446,1.271,0.052,1.738
			C-43.634,28.254-42.851,28.228-42.383,27.738z M-41.988,33.163c0.594-0.627,0.565-1.62-0.065-2.217
			c-0.631-0.597-1.619-0.557-2.215,0.067c-0.59,0.625-0.562,1.623,0.068,2.213C-43.567,33.825-42.58,33.794-41.988,33.163z
			 M-40.096,38.196c0.668-0.707,0.634-1.827-0.072-2.489c-0.711-0.675-1.822-0.625-2.484,0.075
			c-0.667,0.705-0.643,1.818,0.068,2.489C-41.873,38.934-40.757,38.897-40.096,38.196z M-19.488,44.308
			c0.405,0.378,1.037,0.361,1.413-0.04c0.377-0.397,0.358-1.028-0.044-1.41c-0.399-0.379-1.031-0.36-1.409,0.042
			C-19.907,43.3-19.887,43.93-19.488,44.308z M-24.546,46.229c0.497,0.47,1.277,0.437,1.743-0.053
			c0.465-0.49,0.449-1.272-0.049-1.739c-0.5-0.466-1.279-0.442-1.747,0.054C-25.062,44.98-25.039,45.764-24.546,46.229z
			 M-29.973,46.622c0.636,0.6,1.621,0.57,2.211-0.062c0.593-0.627,0.568-1.618-0.062-2.211c-0.63-0.595-1.626-0.561-2.217,0.064
			C-30.633,45.04-30.604,46.036-29.973,46.622z M-35.095,45.315c0.707,0.67,1.824,0.635,2.484-0.073
			c0.664-0.71,0.64-1.822-0.074-2.488c-0.708-0.667-1.824-0.631-2.488,0.079C-35.838,43.528-35.806,44.647-35.095,45.315z
			 M-21.764,17.488c-0.245,0.831-1.119,1.308-1.955,1.06c-0.846-0.249-1.31-1.118-1.067-1.957c0.24-0.834,1.115-1.315,1.956-1.073
			C-21.991,15.764-21.511,16.644-21.764,17.488z M-36.868,21.208c-0.414-0.113-0.847,0.117-0.968,0.531
			c-0.123,0.408,0.116,0.841,0.528,0.96c0.411,0.122,0.841-0.113,0.964-0.524C-36.217,21.767-36.461,21.335-36.868,21.208z
			 M-34.137,18.204c-0.513-0.151-1.042,0.146-1.19,0.652c-0.149,0.513,0.139,1.042,0.649,1.193c0.509,0.15,1.043-0.146,1.193-0.651
			C-33.335,18.887-33.629,18.354-34.137,18.204z M-30.635,16.083c-0.651-0.187-1.325,0.183-1.519,0.825
			c-0.188,0.647,0.186,1.324,0.833,1.515c0.644,0.189,1.325-0.175,1.513-0.826C-29.624,16.953-29.997,16.274-30.635,16.083z
			 M-26.755,15.216c-0.736-0.219-1.489,0.203-1.707,0.928c-0.215,0.728,0.199,1.486,0.929,1.705
			c0.728,0.215,1.486-0.205,1.703-0.926C-25.613,16.195-26.029,15.428-26.755,15.216z M-38.597,24.93
			c-0.308-0.09-0.63,0.085-0.716,0.392c-0.091,0.309,0.08,0.636,0.388,0.728c0.311,0.089,0.631-0.089,0.722-0.397
			C-38.113,25.343-38.286,25.02-38.597,24.93z M-15.066,28.427c-0.123,0.409,0.112,0.846,0.528,0.963
			c0.414,0.124,0.844-0.113,0.964-0.526c0.121-0.407-0.11-0.841-0.527-0.964C-14.51,27.781-14.952,28.017-15.066,28.427z
			 M-15.966,24.539c-0.156,0.517,0.146,1.049,0.653,1.196c0.512,0.151,1.042-0.143,1.193-0.651c0.149-0.51-0.14-1.042-0.648-1.188
			C-15.279,23.742-15.82,24.033-15.966,24.539z M-18.083,21.038c-0.192,0.655,0.181,1.329,0.825,1.519
			c0.647,0.191,1.321-0.187,1.515-0.832c0.195-0.641-0.176-1.318-0.828-1.509C-17.212,20.028-17.887,20.398-18.083,21.038z
			 M-21.065,18.321c-0.216,0.726,0.205,1.487,0.932,1.705c0.729,0.213,1.489-0.212,1.703-0.937c0.218-0.725-0.198-1.488-0.926-1.703
			C-20.089,17.173-20.848,17.596-21.065,18.321z M-15.382,32.353c-0.085,0.309,0.087,0.634,0.392,0.723
			c0.311,0.091,0.631-0.086,0.72-0.397c0.094-0.304-0.082-0.631-0.391-0.72C-14.964,31.87-15.292,32.047-15.382,32.353z
			 M-28.792,41.414c0.244-0.836-0.228-1.714-1.071-1.962c-0.838-0.243-1.715,0.232-1.956,1.069c-0.241,0.846,0.227,1.717,1.07,1.962
			C-29.913,42.724-29.03,42.243-28.792,41.414z M-38.517,29.573c0.124-0.41-0.111-0.843-0.525-0.968
			c-0.409-0.121-0.84,0.119-0.969,0.528c-0.124,0.412,0.119,0.842,0.529,0.963C-39.071,30.22-38.641,29.989-38.517,29.573z
			 M-37.616,33.458c0.15-0.507-0.144-1.042-0.648-1.181c-0.517-0.156-1.049,0.133-1.191,0.644c-0.143,0.507,0.133,1.045,0.649,1.194
			C-38.302,34.269-37.765,33.974-37.616,33.458z M-35.495,36.964c0.19-0.646-0.185-1.328-0.832-1.521
			c-0.649-0.192-1.318,0.185-1.513,0.831c-0.191,0.646,0.175,1.321,0.825,1.515C-36.361,37.981-35.689,37.61-35.495,36.964z
			 M-32.513,39.685c0.209-0.722-0.205-1.49-0.936-1.703c-0.73-0.215-1.486,0.202-1.698,0.934c-0.212,0.721,0.197,1.484,0.928,1.699
			C-33.49,40.824-32.73,40.409-32.513,39.685z M-16.716,36.789c0.421,0.12,0.853-0.115,0.973-0.525
			c0.119-0.41-0.116-0.846-0.526-0.97c-0.41-0.119-0.844,0.118-0.967,0.527C-17.357,36.239-17.123,36.672-16.716,36.789z
			 M-19.444,39.796c0.506,0.152,1.04-0.142,1.188-0.644c0.153-0.516-0.139-1.047-0.645-1.196c-0.511-0.154-1.046,0.146-1.199,0.651
			C-20.246,39.113-19.95,39.647-19.444,39.796z M-22.947,41.917c0.655,0.193,1.326-0.174,1.517-0.828
			c0.189-0.641-0.175-1.317-0.827-1.508c-0.646-0.193-1.332,0.18-1.518,0.825C-23.961,41.052-23.588,41.732-22.947,41.917z
			 M-26.821,42.782c0.729,0.22,1.495-0.2,1.702-0.922c0.21-0.73-0.197-1.491-0.926-1.704c-0.732-0.217-1.492,0.2-1.707,0.931
			C-27.965,41.811-27.548,42.567-26.821,42.782z M-30.031,20.415c0.317,0.59,0.102,1.335-0.493,1.655
			c-0.603,0.324-1.34,0.094-1.663-0.5c-0.326-0.591-0.101-1.336,0.492-1.657C-31.099,19.591-30.35,19.813-30.031,20.415z
			 M-36.083,29.994c-0.346,0.193-0.477,0.632-0.288,0.981c0.192,0.354,0.63,0.477,0.976,0.283c0.349-0.179,0.492-0.624,0.293-0.974
			C-35.296,29.939-35.727,29.807-36.083,29.994z M-36.204,27.05c-0.404,0.216-0.553,0.728-0.337,1.131
			c0.226,0.414,0.732,0.562,1.142,0.346c0.407-0.223,0.561-0.74,0.341-1.143C-35.281,26.976-35.789,26.823-36.204,27.05z
			 M-35.44,24.214c-0.467,0.252-0.64,0.838-0.395,1.302c0.256,0.464,0.839,0.642,1.303,0.389c0.469-0.249,0.646-0.835,0.394-1.304
			C-34.398,24.139-34.977,23.966-35.44,24.214z M-33.881,21.763c-0.533,0.291-0.728,0.937-0.44,1.471
			c0.285,0.52,0.932,0.717,1.457,0.434c0.535-0.282,0.729-0.944,0.446-1.461C-32.7,21.683-33.36,21.475-33.881,21.763z
			 M-35.075,32.786c-0.295,0.153-0.401,0.517-0.244,0.818c0.16,0.288,0.519,0.398,0.818,0.244c0.288-0.164,0.398-0.527,0.238-0.819
			C-34.422,32.741-34.788,32.629-35.075,32.786z M-21.151,22.754c0.189,0.348,0.625,0.477,0.983,0.298
			c0.348-0.199,0.483-0.634,0.293-0.985c-0.194-0.349-0.629-0.485-0.977-0.291C-21.21,21.972-21.337,22.407-21.151,22.754z
			 M-23.597,21.199c0.221,0.408,0.74,0.557,1.136,0.334c0.417-0.222,0.567-0.73,0.345-1.137c-0.216-0.41-0.731-0.56-1.132-0.347
			C-23.66,20.276-23.817,20.793-23.597,21.199z M-26.423,20.44c0.246,0.465,0.826,0.64,1.29,0.386
			c0.477-0.257,0.643-0.834,0.396-1.302c-0.248-0.465-0.832-0.643-1.299-0.383C-26.506,19.39-26.672,19.969-26.423,20.44z
			 M-29.375,20.558c0.28,0.532,0.943,0.722,1.466,0.443c0.524-0.287,0.715-0.941,0.436-1.469c-0.278-0.522-0.943-0.724-1.467-0.436
			C-29.466,19.377-29.651,20.036-29.375,20.558z M-19.313,24.959c0.156,0.292,0.521,0.4,0.806,0.241
			c0.295-0.155,0.404-0.515,0.244-0.807c-0.158-0.297-0.516-0.407-0.814-0.257C-19.357,24.299-19.475,24.674-19.313,24.959z
			 M-21.389,36.419c-0.323-0.6-1.066-0.831-1.667-0.497c-0.592,0.317-0.822,1.059-0.49,1.656c0.323,0.595,1.065,0.811,1.662,0.498
			C-21.292,37.747-21.072,37-21.389,36.419z M-32.433,35.231c-0.185-0.345-0.624-0.475-0.974-0.29
			c-0.35,0.184-0.48,0.627-0.292,0.973c0.184,0.354,0.622,0.482,0.975,0.286C-32.378,36.02-32.244,35.582-32.433,35.231z
			 M-29.982,36.789c-0.227-0.404-0.736-0.562-1.136-0.336c-0.417,0.226-0.564,0.729-0.339,1.134
			c0.212,0.408,0.726,0.566,1.133,0.346C-29.916,37.703-29.765,37.188-29.982,36.789z M-27.149,37.546
			c-0.248-0.465-0.837-0.632-1.311-0.39c-0.466,0.253-0.633,0.839-0.387,1.303c0.255,0.472,0.838,0.645,1.304,0.394
			C-27.068,38.607-26.896,38.016-27.149,37.546z M-24.202,37.427c-0.287-0.524-0.938-0.719-1.468-0.438
			c-0.528,0.281-0.712,0.936-0.425,1.467c0.276,0.519,0.928,0.727,1.456,0.432C-24.11,38.609-23.921,37.95-24.202,37.427z
			 M-17.507,28c0.354-0.203,0.491-0.643,0.305-0.988c-0.193-0.352-0.631-0.478-0.976-0.291c-0.355,0.186-0.489,0.631-0.294,0.979
			C-18.29,28.049-17.844,28.179-17.507,28z M-17.371,30.94c0.409-0.222,0.556-0.732,0.333-1.138
			c-0.216-0.409-0.723-0.557-1.134-0.339c-0.411,0.224-0.556,0.729-0.344,1.144C-18.3,31.008-17.775,31.157-17.371,30.94z
			 M-18.141,33.773c0.477-0.258,0.643-0.834,0.399-1.306c-0.254-0.463-0.832-0.642-1.305-0.389c-0.469,0.246-0.64,0.842-0.392,1.308
			C-19.18,33.849-18.6,34.023-18.141,33.773z M-19.69,36.214c0.523-0.27,0.718-0.938,0.435-1.458
			c-0.288-0.524-0.94-0.728-1.462-0.438c-0.528,0.285-0.72,0.944-0.436,1.465C-20.875,36.307-20.219,36.504-19.69,36.214z
			 M1.268,32.141c-1.733,0-3.137-1.407-3.137-3.145c0-1.744,1.404-3.136,3.142-3.136c1.732,0,3.139,1.394,3.139,3.14
			C4.412,30.733,3.004,32.141,1.268,32.141z M-11.062,5.05c0.201-0.943-0.399-1.857-1.334-2.054c-0.938-0.201-1.858,0.39-2.058,1.33
			c-0.198,0.937,0.398,1.858,1.337,2.058C-12.183,6.583-11.261,5.984-11.062,5.05z M-4.875,9.481C-4.691,8.33-5.478,7.263-6.62,7.08
			C-7.765,6.9-8.84,7.673-9.023,8.826c-0.184,1.145,0.6,2.224,1.745,2.405C-6.135,11.412-5.055,10.628-4.875,9.481z M0.114,15.24
			c0.149-1.444-0.892-2.726-2.329-2.879c-1.433-0.149-2.727,0.887-2.879,2.332c-0.15,1.436,0.898,2.727,2.33,2.877
			C-1.325,17.721-0.038,16.675,0.114,15.24z M3.206,21.885c0.085-1.602-1.144-2.95-2.731-3.032c-1.591-0.085-2.95,1.127-3.034,2.729
			c-0.084,1.593,1.141,2.952,2.727,3.034C1.761,24.699,3.121,23.476,3.206,21.885z M-25.53,0.935c0-0.7-0.566-1.259-1.264-1.259
			c-0.696,0-1.262,0.559-1.262,1.259c0,0.699,0.566,1.261,1.262,1.261C-26.097,2.196-25.53,1.634-25.53,0.935z M-13.118,51.613
			c-0.938,0.203-1.537,1.125-1.338,2.059c0.202,0.939,1.121,1.537,2.06,1.335c0.935-0.199,1.534-1.116,1.334-2.061
			C-11.261,52.017-12.183,51.417-13.118,51.613z M-7.275,46.772c-1.145,0.18-1.929,1.257-1.747,2.401
			c0.181,1.153,1.259,1.926,2.402,1.746c1.142-0.183,1.927-1.252,1.745-2.404C-5.056,47.37-6.133,46.592-7.275,46.772z
			 M-2.764,40.433c-1.433,0.146-2.48,1.436-2.33,2.876c0.152,1.441,1.444,2.477,2.879,2.327c1.438-0.152,2.479-1.432,2.33-2.877
			C-0.038,41.318-1.327,40.279-2.764,40.433z M0.167,33.382c-1.586,0.085-2.811,1.442-2.727,3.034
			c0.084,1.602,1.441,2.813,3.034,2.729c1.587-0.082,2.813-1.429,2.731-3.031C3.121,34.523,1.761,33.301,0.167,33.382z
			 M-26.794,55.804c-0.696,0-1.262,0.562-1.262,1.261c0,0.699,0.566,1.259,1.262,1.259c0.698,0,1.264-0.56,1.264-1.261
			C-25.53,56.367-26.097,55.804-26.794,55.804z M-54.857,32.141c1.729,0,3.136-1.407,3.136-3.145c0-1.744-1.407-3.136-3.136-3.136
			C-56.587,25.86-58,27.254-58,29C-58.001,30.733-56.588,32.141-54.857,32.141z M-40.471,6.384c0.938-0.2,1.537-1.12,1.337-2.058
			c-0.2-0.94-1.119-1.531-2.056-1.332c-0.935,0.2-1.536,1.112-1.336,2.055C-42.327,5.984-41.406,6.583-40.471,6.384z
			 M-46.311,11.228c1.147-0.181,1.929-1.258,1.748-2.406c-0.183-1.15-1.258-1.926-2.406-1.744c-1.143,0.181-1.925,1.25-1.742,2.401
			C-48.531,10.627-47.455,11.411-46.311,11.228z M-50.826,17.57c1.437-0.15,2.482-1.44,2.33-2.877
			c-0.15-1.444-1.441-2.482-2.877-2.332c-1.44,0.153-2.482,1.435-2.328,2.879C-53.551,16.675-52.266,17.721-50.826,17.57z
			 M-53.756,24.616c1.59-0.082,2.813-1.441,2.731-3.034c-0.084-1.603-1.442-2.815-3.039-2.731c-1.585,0.083-2.815,1.43-2.731,3.033
			C-56.711,23.476-55.348,24.699-53.756,24.616z M-42.524,52.949c-0.202,0.941,0.399,1.86,1.332,2.061
			c0.938,0.202,1.858-0.397,2.06-1.337c0.2-0.934-0.4-1.855-1.335-2.057C-41.405,51.417-42.327,52.017-42.524,52.949z
			 M-48.709,48.516c-0.184,1.152,0.6,2.222,1.742,2.404c1.146,0.18,2.222-0.593,2.406-1.746c0.182-1.144-0.602-2.219-1.749-2.398
			C-47.454,46.592-48.529,47.373-48.709,48.516z M-53.7,42.759c-0.153,1.445,0.888,2.724,2.328,2.877
			c1.437,0.149,2.726-0.886,2.877-2.327c0.152-1.439-0.894-2.729-2.33-2.876C-52.265,40.276-53.551,41.318-53.7,42.759z
			 M-56.795,36.113c-0.083,1.602,1.145,2.949,2.73,3.031c1.598,0.085,2.956-1.129,3.04-2.729c0.082-1.592-1.141-2.949-2.731-3.034
			C-55.348,33.301-56.711,34.523-56.795,36.113z M-19.881,54.802c-0.721,0.194-1.151,0.937-0.959,1.659
			c0.195,0.724,0.939,1.148,1.66,0.955c0.725-0.192,1.154-0.932,0.961-1.656C-18.412,55.037-19.157,54.606-19.881,54.802z
			 M-33.708,54.802c-0.72-0.195-1.465,0.235-1.66,0.96c-0.192,0.723,0.238,1.462,0.958,1.654c0.725,0.196,1.469-0.231,1.662-0.957
			C-32.554,55.738-32.985,54.993-33.708,54.802z M-18.217,2.24c0.194-0.723-0.24-1.462-0.963-1.657
			c-0.722-0.193-1.462,0.23-1.658,0.957c-0.195,0.725,0.237,1.466,0.958,1.659C-19.157,3.394-18.412,2.966-18.217,2.24z
			 M-32.747,1.538c-0.194-0.725-0.938-1.149-1.661-0.955c-0.721,0.194-1.154,0.932-0.958,1.655c0.194,0.727,0.94,1.153,1.66,0.96
			C-32.985,3.005-32.554,2.265-32.747,1.538z M-5.701,22.576c-1.245,0.537-2.687-0.038-3.225-1.284
			c-0.537-1.25,0.04-2.683,1.286-3.223c1.24-0.534,2.68,0.034,3.22,1.282C-3.884,20.592-4.458,22.04-5.701,22.576z M-22.921,6.968
			c-0.148-0.74-0.858-1.21-1.591-1.062c-0.735,0.146-1.213,0.853-1.063,1.591c0.146,0.73,0.859,1.209,1.594,1.061
			C-23.249,8.41-22.775,7.697-22.921,6.968z M-17.111,8.23c-0.227-0.882-1.121-1.407-1.994-1.181
			c-0.877,0.222-1.411,1.111-1.183,1.993c0.224,0.875,1.119,1.408,1.995,1.181C-17.42,10.001-16.887,9.105-17.111,8.23z
			 M-11.757,10.815c-0.34-1.081-1.482-1.681-2.56-1.339c-1.076,0.334-1.682,1.478-1.344,2.559c0.337,1.076,1.487,1.678,2.561,1.341
			C-12.021,13.038-11.422,11.891-11.757,10.815z M-7.485,14.624c-0.435-1.173-1.731-1.762-2.895-1.33
			c-1.168,0.431-1.769,1.721-1.333,2.895c0.433,1.169,1.729,1.765,2.894,1.334C-7.651,17.09-7.054,15.791-7.485,14.624z
			 M-34.564,8.489c-0.216-0.503-0.796-0.728-1.296-0.512c-0.499,0.213-0.732,0.792-0.514,1.294c0.214,0.497,0.796,0.727,1.294,0.512
			C-34.583,9.567-34.347,8.988-34.564,8.489z M-9.996,40.984c-0.612,0.436-0.754,1.28-0.324,1.89c0.436,0.61,1.28,0.753,1.892,0.321
			c0.609-0.434,0.753-1.273,0.318-1.888C-8.542,40.701-9.387,40.555-9.996,40.984z M-7.304,35.705
			c-0.765,0.487-0.994,1.499-0.511,2.263c0.487,0.767,1.499,0.993,2.263,0.509c0.762-0.483,0.994-1.491,0.509-2.263
			C-5.528,35.452-6.542,35.223-7.304,35.705z M-6.031,29.766c-0.982,0.55-1.335,1.798-0.783,2.784
			c0.556,0.987,1.801,1.33,2.781,0.778c0.988-0.555,1.337-1.794,0.783-2.781C-3.803,29.56-5.044,29.207-6.031,29.766z
			 M-6.108,23.807c-1.111,0.55-1.57,1.904-1.018,3.017c0.557,1.125,1.905,1.571,3.021,1.019c1.113-0.548,1.576-1.895,1.018-3.018
			C-3.638,23.711-4.995,23.253-6.108,23.807z M-18.505,48.219c-0.499,0.215-0.729,0.792-0.514,1.293
			c0.218,0.503,0.796,0.729,1.294,0.515c0.5-0.215,0.731-0.795,0.517-1.295C-17.426,48.232-18.007,48.003-18.505,48.219z
			 M-45.944,39.931c1.241-0.538,1.813-1.98,1.276-3.226c-0.536-1.248-1.977-1.815-3.218-1.279c-1.243,0.535-1.822,1.972-1.283,3.224
			C-48.632,39.894-47.184,40.465-45.944,39.931z M-43.591,17.015c0.609-0.435,0.755-1.278,0.322-1.885
			c-0.436-0.617-1.275-0.755-1.885-0.324c-0.612,0.434-0.76,1.273-0.322,1.889C-45.045,17.302-44.2,17.446-43.591,17.015z
			 M-46.281,22.292c0.768-0.482,0.994-1.499,0.509-2.266c-0.486-0.769-1.497-0.989-2.263-0.506
			c-0.762,0.486-0.994,1.492-0.505,2.262C-48.058,22.549-47.046,22.775-46.281,22.292z M-47.558,28.238
			c0.986-0.552,1.335-1.801,0.782-2.784c-0.555-0.988-1.801-1.334-2.784-0.78c-0.986,0.552-1.335,1.795-0.781,2.782
			C-49.788,28.438-48.543,28.79-47.558,28.238z M-47.48,34.197c1.115-0.554,1.571-1.906,1.018-3.02
			c-0.555-1.126-1.903-1.574-3.023-1.019c-1.108,0.55-1.574,1.896-1.02,3.017C-49.95,34.292-48.595,34.747-47.48,34.197z
			 M-30.667,51.034c0.147,0.737,0.862,1.211,1.596,1.067c0.73-0.148,1.208-0.861,1.06-1.599c-0.146-0.729-0.86-1.207-1.592-1.061
			C-30.336,49.588-30.813,50.306-30.667,51.034z M-36.472,49.77c0.224,0.881,1.116,1.406,1.992,1.185
			c0.878-0.226,1.409-1.112,1.186-1.994c-0.224-0.878-1.119-1.405-1.998-1.184C-36.167,48.003-36.695,48.893-36.472,49.77z
			 M-41.83,47.185c0.336,1.084,1.479,1.681,2.556,1.34c1.078-0.332,1.683-1.474,1.346-2.554c-0.337-1.079-1.485-1.681-2.562-1.346
			S-42.166,46.105-41.83,47.185z M-46.103,43.375c0.436,1.178,1.731,1.766,2.894,1.331c1.17-0.433,1.77-1.722,1.334-2.896
			c-0.434-1.167-1.728-1.764-2.896-1.33C-45.936,40.909-46.534,42.212-46.103,43.375z M-13.862,45.36
			c-0.454,0.365-0.534,1.028-0.173,1.483c0.363,0.464,1.029,0.535,1.485,0.175c0.459-0.363,0.538-1.023,0.176-1.485
			C-12.735,45.077-13.399,45-13.862,45.36z M-23.773,49.635c-0.576,0.085-0.979,0.622-0.892,1.198
			c0.086,0.583,0.624,0.979,1.199,0.895c0.579-0.088,0.981-0.62,0.895-1.199C-22.653,49.95-23.192,49.551-23.773,49.635z
			 M-28.919,7.165c-0.084-0.58-0.622-0.977-1.201-0.891c-0.577,0.085-0.978,0.617-0.893,1.197c0.087,0.581,0.624,0.977,1.2,0.895
			C-29.237,8.28-28.835,7.747-28.919,7.165z M-39.553,11.155c-0.365-0.461-1.025-0.533-1.488-0.173
			c-0.455,0.363-0.537,1.023-0.173,1.485c0.363,0.46,1.029,0.535,1.485,0.175C-39.271,12.276-39.19,11.614-39.553,11.155z"/>
	</g>
</g>
</svg>
